<svg height="1870" width="720" xmlns="http://www.w3.org/2000/svg">
<rect height="1870" fill="#555" width="720"></rect>
<text fill="#7f7" font-family="Courier New" font-size="12" xml:space="preserve">
<tspan x="10" y="26">8 megabytes</tspan>
<tspan x="10" y="42">└─┬ npm_lazy@1.14.0 </tspan>
<tspan x="10" y="58">  ├── bytes@2.4.0 </tspan>
<tspan x="10" y="74">  ├─┬ file-fixture@0.0.2 </tspan>
<tspan x="10" y="90">  │ └── rimraf@2.2.8 </tspan>
<tspan x="10" y="106">  ├── microee@0.0.6 </tspan>
<tspan x="10" y="122">  ├── minilog@3.1.0 </tspan>
<tspan x="10" y="138">  ├── mixu_minimal@0.0.1 </tspan>
<tspan x="10" y="154">  ├─┬ mkdirp@0.5.1 </tspan>
<tspan x="10" y="170">  │ └── minimist@0.0.8 </tspan>
<tspan x="10" y="186">  ├─┬ request@2.79.0 </tspan>
<tspan x="10" y="202">  │ ├── aws-sign2@0.6.0 </tspan>
<tspan x="10" y="218">  │ ├── aws4@1.6.0 </tspan>
<tspan x="10" y="234">  │ ├── caseless@0.11.0 </tspan>
<tspan x="10" y="250">  │ ├─┬ combined-stream@1.0.5 </tspan>
<tspan x="10" y="266">  │ │ └── delayed-stream@1.0.0 </tspan>
<tspan x="10" y="282">  │ ├── extend@3.0.0 </tspan>
<tspan x="10" y="298">  │ ├── forever-agent@0.6.1 </tspan>
<tspan x="10" y="314">  │ ├─┬ form-data@2.1.2 </tspan>
<tspan x="10" y="330">  │ │ └── asynckit@0.4.0 </tspan>
<tspan x="10" y="346">  │ ├─┬ har-validator@2.0.6 </tspan>
<tspan x="10" y="362">  │ │ ├─┬ chalk@1.1.3 </tspan>
<tspan x="10" y="378">  │ │ │ ├── ansi-styles@2.2.1 </tspan>
<tspan x="10" y="394">  │ │ │ ├── escape-string-regexp@1.0.5 </tspan>
<tspan x="10" y="410">  │ │ │ ├── has-ansi@2.0.0 </tspan>
<tspan x="10" y="426">  │ │ │ └── supports-color@2.0.0 </tspan>
<tspan x="10" y="442">  │ │ ├─┬ commander@2.9.0 </tspan>
<tspan x="10" y="458">  │ │ │ └── graceful-readlink@1.0.1 </tspan>
<tspan x="10" y="474">  │ │ ├─┬ is-my-json-valid@2.16.0 </tspan>
<tspan x="10" y="490">  │ │ │ ├── generate-function@2.0.0 </tspan>
<tspan x="10" y="506">  │ │ │ ├─┬ generate-object-property@1.2.0 </tspan>
<tspan x="10" y="522">  │ │ │ │ └── is-property@1.0.2 </tspan>
<tspan x="10" y="538">  │ │ │ ├── jsonpointer@4.0.1 </tspan>
<tspan x="10" y="554">  │ │ │ └── xtend@4.0.1 </tspan>
<tspan x="10" y="570">  │ │ └─┬ pinkie-promise@2.0.1 </tspan>
<tspan x="10" y="586">  │ │   └── pinkie@2.0.4 </tspan>
<tspan x="10" y="602">  │ ├─┬ hawk@3.1.3 </tspan>
<tspan x="10" y="618">  │ │ ├── boom@2.10.1 </tspan>
<tspan x="10" y="634">  │ │ ├── cryptiles@2.0.5 </tspan>
<tspan x="10" y="650">  │ │ ├── hoek@2.16.3 </tspan>
<tspan x="10" y="666">  │ │ └── sntp@1.0.9 </tspan>
<tspan x="10" y="682">  │ ├─┬ http-signature@1.1.1 </tspan>
<tspan x="10" y="698">  │ │ ├── assert-plus@0.2.0 </tspan>
<tspan x="10" y="714">  │ │ ├─┬ jsprim@1.4.0 </tspan>
<tspan x="10" y="730">  │ │ │ ├── assert-plus@1.0.0 </tspan>
<tspan x="10" y="746">  │ │ │ ├── extsprintf@1.0.2 </tspan>
<tspan x="10" y="762">  │ │ │ ├── json-schema@0.2.3 </tspan>
<tspan x="10" y="778">  │ │ │ └── verror@1.3.6 </tspan>
<tspan x="10" y="794">  │ │ └─┬ sshpk@1.11.0 </tspan>
<tspan x="10" y="810">  │ │   ├── asn1@0.2.3 </tspan>
<tspan x="10" y="826">  │ │   ├── assert-plus@1.0.0 </tspan>
<tspan x="10" y="842">  │ │   ├── bcrypt-pbkdf@1.0.1 </tspan>
<tspan x="10" y="858">  │ │   ├─┬ dashdash@1.14.1 </tspan>
<tspan x="10" y="874">  │ │   │ └── assert-plus@1.0.0 </tspan>
<tspan x="10" y="890">  │ │   ├── ecc-jsbn@0.1.1 </tspan>
<tspan x="10" y="906">  │ │   ├─┬ getpass@0.1.6 </tspan>
<tspan x="10" y="922">  │ │   │ └── assert-plus@1.0.0 </tspan>
<tspan x="10" y="938">  │ │   ├── jodid25519@1.0.2 </tspan>
<tspan x="10" y="954">  │ │   ├── jsbn@0.1.1 </tspan>
<tspan x="10" y="970">  │ │   └── tweetnacl@0.14.5 </tspan>
<tspan x="10" y="986">  │ ├── is-typedarray@1.0.0 </tspan>
<tspan x="10" y="1002">  │ ├── isstream@0.1.2 </tspan>
<tspan x="10" y="1018">  │ ├── json-stringify-safe@5.0.1 </tspan>
<tspan x="10" y="1034">  │ ├─┬ mime-types@2.1.15 </tspan>
<tspan x="10" y="1050">  │ │ └── mime-db@1.27.0 </tspan>
<tspan x="10" y="1066">  │ ├── oauth-sign@0.8.2 </tspan>
<tspan x="10" y="1082">  │ ├── qs@6.3.2 </tspan>
<tspan x="10" y="1098">  │ ├── stringstream@0.0.5 </tspan>
<tspan x="10" y="1114">  │ ├─┬ tough-cookie@2.3.2 </tspan>
<tspan x="10" y="1130">  │ │ └── punycode@1.4.1 </tspan>
<tspan x="10" y="1146">  │ ├── tunnel-agent@0.4.3 </tspan>
<tspan x="10" y="1162">  │ └── uuid@3.0.1 </tspan>
<tspan x="10" y="1178">  └─┬ yargs@6.6.0 </tspan>
<tspan x="10" y="1194">    ├── camelcase@3.0.0 </tspan>
<tspan x="10" y="1210">    ├─┬ cliui@3.2.0 </tspan>
<tspan x="10" y="1226">    │ ├─┬ strip-ansi@3.0.1 </tspan>
<tspan x="10" y="1242">    │ │ └── ansi-regex@2.1.1 </tspan>
<tspan x="10" y="1258">    │ └── wrap-ansi@2.1.0 </tspan>
<tspan x="10" y="1274">    ├── decamelize@1.2.0 </tspan>
<tspan x="10" y="1290">    ├── get-caller-file@1.0.2 </tspan>
<tspan x="10" y="1306">    ├─┬ os-locale@1.4.0 </tspan>
<tspan x="10" y="1322">    │ └─┬ lcid@1.0.0 </tspan>
<tspan x="10" y="1338">    │   └── invert-kv@1.0.0 </tspan>
<tspan x="10" y="1354">    ├─┬ read-pkg-up@1.0.1 </tspan>
<tspan x="10" y="1370">    │ ├─┬ find-up@1.1.2 </tspan>
<tspan x="10" y="1386">    │ │ └── path-exists@2.1.0 </tspan>
<tspan x="10" y="1402">    │ └─┬ read-pkg@1.1.0 </tspan>
<tspan x="10" y="1418">    │   ├─┬ load-json-file@1.1.0 </tspan>
<tspan x="10" y="1434">    │   │ ├── graceful-fs@4.1.11 </tspan>
<tspan x="10" y="1450">    │   │ ├─┬ parse-json@2.2.0 </tspan>
<tspan x="10" y="1466">    │   │ │ └─┬ error-ex@1.3.1 </tspan>
<tspan x="10" y="1482">    │   │ │   └── is-arrayish@0.2.1 </tspan>
<tspan x="10" y="1498">    │   │ ├── pify@2.3.0 </tspan>
<tspan x="10" y="1514">    │   │ └─┬ strip-bom@2.0.0 </tspan>
<tspan x="10" y="1530">    │   │   └── is-utf8@0.2.1 </tspan>
<tspan x="10" y="1546">    │   ├─┬ normalize-package-data@2.3.6 </tspan>
<tspan x="10" y="1562">    │   │ ├── hosted-git-info@2.4.1 </tspan>
<tspan x="10" y="1578">    │   │ ├─┬ is-builtin-module@1.0.0 </tspan>
<tspan x="10" y="1594">    │   │ │ └── builtin-modules@1.1.1 </tspan>
<tspan x="10" y="1610">    │   │ ├── semver@5.3.0 </tspan>
<tspan x="10" y="1626">    │   │ └─┬ validate-npm-package-license@3.0.1 </tspan>
<tspan x="10" y="1642">    │   │   ├─┬ spdx-correct@1.0.2 </tspan>
<tspan x="10" y="1658">    │   │   │ └── spdx-license-ids@1.2.2 </tspan>
<tspan x="10" y="1674">    │   │   └── spdx-expression-parse@1.0.4 </tspan>
<tspan x="10" y="1690">    │   └── path-type@1.1.0 </tspan>
<tspan x="10" y="1706">    ├── require-directory@2.1.1 </tspan>
<tspan x="10" y="1722">    ├── require-main-filename@1.0.1 </tspan>
<tspan x="10" y="1738">    ├── set-blocking@2.0.0 </tspan>
<tspan x="10" y="1754">    ├─┬ string-width@1.0.2 </tspan>
<tspan x="10" y="1770">    │ ├── code-point-at@1.1.0 </tspan>
<tspan x="10" y="1786">    │ └─┬ is-fullwidth-code-point@1.0.0 </tspan>
<tspan x="10" y="1802">    │   └── number-is-nan@1.0.1 </tspan>
<tspan x="10" y="1818">    ├── which-module@1.0.0 </tspan>
<tspan x="10" y="1834">    ├── y18n@3.2.1 </tspan>
<tspan x="10" y="1850">    └── yargs-parser@4.2.1</tspan>
</text>
</svg>
